# xmcd CD database file
#
# Track frame offsets:
#	150
#	17235
#	35808
#	52789
#
# Disc length: 944 seconds
#
# Revision: 2
# Processed by: cddbd v1.5.1PL2 Copyright (c) Steve Scherf et al.
# Submitted via: CDex 1.51
#
DISCID=2b03ae04
DTITLE=Various Artist - 舞-乙HiME アリカ＆ニナの乙女ちっくレディオ テーマソング - 半熟ヒロイン☆
DYEAR=2005
DGENRE=Anime
TTITLE0=アリカ(菊池美香) and ニナ(小清水亜美) - 半熟ヒロイン☆
TTITLE1=アリカ(菊池美香) and ニナ(小清水亜美) and マシロ(ゆかな) - 世界中がユメになれ
TTITLE2=YORI - 半熟ヒロイン☆(Instrumental)
TTITLE3=前澤寛之 - 世界中がユメになれ(Instrumental)
EXTD=YEAR: 2005
EXTT0=
EXTT1=
EXTT2=
EXTT3=
PLAYORDER=
